<svg width="191" height="19" viewBox="0 0 191 19" fill="none" xmlns="http://www.w3.org/2000/svg">
<path fill-rule="evenodd" clip-rule="evenodd" d="M36.0471 17.9056H43.5449V15.7866L38.655 15.7866V0.573589L36.0471 0.573589V17.9328V17.9056Z" fill="white"/>
<path fill-rule="evenodd" clip-rule="evenodd" d="M3.74653 2.80121L3.74653 15.7595H6.38165C9.77742 15.7595 12.3039 13.233 12.4669 9.70141C12.6299 5.87099 10.0762 2.85554 6.40881 2.82838L3.74653 2.80121ZM0.975586 17.9056L0.975586 0.600755L6.40881 0.600755C11.516 0.600755 15.1291 4.34968 15.265 9.02226C15.4008 13.8307 12.1137 17.9056 6.40881 17.9056H0.975586Z" fill="white"/>
<path fill-rule="evenodd" clip-rule="evenodd" d="M157.616 17.9056H160.169V5.19183L172.041 17.9056H173.97V0.573589L171.416 0.573589V13.5047L159.3 0.573589L157.616 0.573589V17.9056Z" fill="white"/>
<path d="M58.0245 17.9056H66.9893V15.8138L60.7411 15.8138V9.86441L66.8263 9.86441V7.74545L60.7411 7.74545V2.69255L66.9893 2.69255V0.573589L58.0245 0.573589V17.9328V17.9056Z" fill="white"/>
<path d="M183.749 0.573589L182.038 0.573589L174.785 17.9056H177.664L179.593 12.9885L186.14 12.9885L188.096 17.9056L190.976 17.9056L183.749 0.573589ZM180.571 10.8152L182.907 4.73001L185.244 10.8152L180.571 10.8152Z" fill="white"/>
<path d="M108.228 0.573589L106.516 0.573589L99.2627 17.9056L102.142 17.9056L104.071 12.9885L110.618 12.9885L112.574 17.9056H115.454L108.228 0.573589ZM105.049 10.8152L107.385 4.73001L109.722 10.8152L105.049 10.8152Z" fill="white"/>
<path d="M149.439 0.573589L147.727 0.573589L140.474 17.9056H143.353L145.282 12.9885L151.829 12.9885L153.758 17.9056H156.638L149.439 0.573589ZM146.26 10.8152L148.596 4.73001L150.933 10.8152L146.26 10.8152Z" fill="white"/>
<path fill-rule="evenodd" clip-rule="evenodd" d="M133.9 9.94591C135.72 9.94591 138.463 10.0002 138.463 12.7984C138.463 15.352 136.317 15.841 133.791 15.841H132.188V9.94591H133.9ZM134.986 17.9056C138.545 17.9056 141.126 16.6831 141.316 13.233C141.452 11.1684 139.903 9.02226 137.811 8.5061C138.98 7.71828 139.713 6.71314 139.713 5.32766C139.767 1.30707 137.024 0.682253 134.198 0.600755L129.363 0.600755V17.9056H134.986ZM132.188 2.69255H132.623C134.714 2.63822 136.996 2.52955 136.996 5.1375C136.996 7.79978 134.85 7.77262 132.596 7.82695H132.188V2.69255Z" fill="white"/>
<path fill-rule="evenodd" clip-rule="evenodd" d="M120.778 9.94591C122.598 9.94591 125.342 10.0002 125.342 12.7984C125.342 15.352 123.196 15.841 120.67 15.841H119.067V9.94591H120.778ZM121.865 17.9056C125.424 17.9056 128.004 16.6831 128.195 13.233C128.33 11.1684 126.782 9.02226 124.69 8.5061C125.858 7.71828 126.592 6.71314 126.592 5.32766C126.646 1.30707 123.902 0.682253 121.077 0.600755L116.242 0.600755V17.9056H121.865ZM119.094 2.69255H119.529C121.62 2.63822 123.902 2.52955 123.902 5.1375C123.902 7.79978 121.756 7.77262 119.501 7.82695H119.094V2.69255Z" fill="white"/>
<path d="M57.2367 1.95906C56.476 1.30707 56.1772 1.14408 54.8189 0.600755C53.7051 0.166097 52.4011 -0.0240662 51.3144 0.0302661C49.9561 0.0574322 49.1683 0.274761 47.9187 0.790918C43.9796 2.47522 41.9421 5.81665 42.3224 9.97307C42.6484 13.6133 44.4957 16.0855 47.9187 17.6068C49.1412 18.1501 49.929 18.3674 51.2873 18.4217C52.6727 18.5032 53.5149 18.3946 54.8189 17.9328C55.824 17.5796 56.4217 17.3623 57.2367 16.6831V14.2925C57.2367 14.2925 55.824 15.2433 54.8189 15.6236C53.5149 16.0855 52.6727 16.2756 51.2873 16.1126C49.8746 15.9496 49.0597 15.6236 47.9187 14.8358C46.9679 14.1838 46.4789 13.6948 45.9084 12.7169C45.3651 11.766 45.2292 11.1412 45.1477 10.0546C44.9304 7.39229 45.6911 5.35483 47.9187 3.75203C49.0597 2.93704 49.8746 2.61105 51.2873 2.47522C52.6727 2.33939 53.5149 2.52955 54.8189 2.99138C55.824 3.34454 56.3402 3.72486 57.2367 4.26818V1.95906Z" fill="white"/>
<path d="M99.9418 4.48551C98.9367 1.95906 95.6224 0.0845984 92.0365 0.00309994C86.6848 -0.132731 82.2838 4.21385 82.3653 9.37542C82.4468 14.4555 86.7934 18.5304 92.0365 18.4489C99.8603 18.3402 101.3 11.929 100.757 9.04942L92.3896 9.04942V11.1684L97.9587 11.1684C97.6599 14.7271 95.0791 15.8953 92.0365 16.0855C88.2061 16.3571 85.1635 13.07 85.082 9.34825C85.0005 5.57216 88.1246 2.31222 92.0365 2.33939C94.6716 2.36655 96.8721 3.88786 97.8772 5.54499L99.9418 4.48551Z" fill="white"/>
<path fill-rule="evenodd" clip-rule="evenodd" d="M35.3136 9.26675C35.3136 6.79464 34.3628 4.53985 32.5155 2.80121C30.6953 1.08975 28.2232 0.166097 25.6968 0.166097C23.1432 0.166097 20.6982 1.11691 18.9052 2.80121C17.0579 4.53985 16.08 6.79464 16.08 9.26675C16.08 11.7389 17.0579 13.9665 18.9052 15.7051C20.7254 17.4166 23.1703 18.3674 25.6968 18.3674C28.2232 18.3674 30.6953 17.4166 32.5155 15.7051C34.3356 14.0208 35.3136 11.766 35.3136 9.26675ZM25.6968 16.0311C23.8223 16.0311 22.138 15.352 20.7797 14.048C19.4486 12.744 18.7422 11.1141 18.7422 9.29392C18.7422 7.47379 19.4486 5.78949 20.7797 4.48551C22.0837 3.2087 23.8223 2.52955 25.6968 2.52955C27.5712 2.52955 29.2827 3.2087 30.6138 4.48551C31.945 5.76232 32.6513 7.44662 32.6513 9.29392C32.6513 11.1141 31.945 12.7712 30.6138 14.048C29.2555 15.3248 27.5441 16.0311 25.6968 16.0311Z" fill="white"/>
<path d="M77.8829 16.0855C78.2633 15.7323 78.5892 15.3248 78.9152 14.863L78.9967 14.7271L78.1003 13.7763C78.1003 13.7763 77.2581 14.8358 77.0679 15.0803C76.8235 14.8086 75.6825 13.4503 75.438 13.1787C76.4703 12.5267 76.9321 11.8475 76.9321 11.0054C76.9321 9.81008 76.0628 9.02226 74.7317 9.02226C73.4277 9.02226 72.504 9.83724 72.504 11.0054C72.504 11.603 72.6942 12.092 73.1289 12.5539C73.1289 12.5539 73.2375 12.6625 73.3462 12.7712C72.0694 13.5318 71.4445 14.4012 71.4445 15.4335C71.4445 16.9819 72.5855 18.0414 74.2427 18.0414C75.2206 18.0414 76.1171 17.6611 76.8778 16.9819C77.0679 17.1993 77.6656 17.9056 77.6656 17.9056L79.4586 17.9056C79.4586 17.9056 78.0731 16.3028 77.8829 16.0855ZM74.7317 10.2719C75.2478 10.2719 75.5738 10.5707 75.5738 11.0326C75.5738 11.44 75.3293 11.7932 74.8403 12.092C74.8403 12.092 74.7045 12.1735 74.5958 12.2279C74.46 12.0649 74.1612 11.7389 74.1612 11.7389C73.971 11.5215 73.8895 11.3042 73.8895 11.0597C73.9167 10.5979 74.2427 10.2719 74.7317 10.2719ZM74.0525 13.885C74.0525 13.885 74.1068 13.8578 74.1612 13.8035C74.3513 14.0208 75.8183 15.7595 76.0356 16.004C75.3836 16.5473 74.8403 16.7918 74.2698 16.7918C73.4548 16.7918 72.8572 16.2213 72.8572 15.4063C72.8572 14.7815 73.2919 14.374 74.0525 13.885Z" fill="white"/>
</svg>
